<?xml version="1.0" encoding="UTF-8"?>
<svg version="1.1" xmlns="http://www.w3.org/2000/svg" width="348" height="346">
<path d="M0 0 C13.32876135 6.78023432 25.01176575 15.42790468 36.125 25.375 C36.63659668 25.8302002 37.14819336 26.28540039 37.67529297 26.75439453 C52.54181704 40.02723476 52.54181704 40.02723476 59.125 47.375 C59.125 48.035 59.125 48.695 59.125 49.375 C60.115 49.375 61.105 49.375 62.125 49.375 C62.37121094 48.80426758 62.61742187 48.23353516 62.87109375 47.64550781 C64.33398997 44.9965719 66.05145319 43.18951454 68.1875 41.046875 C68.98414063 40.24765625 69.78078125 39.4484375 70.6015625 38.625 C71.43429688 37.8 72.26703125 36.975 73.125 36.125 C74.37410156 34.86429688 74.37410156 34.86429688 75.6484375 33.578125 C76.44507813 32.7840625 77.24171875 31.99 78.0625 31.171875 C78.79339844 30.44323242 79.52429688 29.71458984 80.27734375 28.96386719 C82.125 27.375 82.125 27.375 84.125 27.375 C84.125 26.715 84.125 26.055 84.125 25.375 C87.23689524 22.45347952 90.73309614 19.9609069 94.125 17.375 C94.67671875 16.94445312 95.2284375 16.51390625 95.796875 16.0703125 C113.81566611 2.02864195 134.49194389 -10.33186986 158.125 -7.625 C165.675641 -5.86472787 171.92088829 -0.50069511 178.12158203 3.94580078 C181.16968408 6.1202572 184.24318541 8.25799581 187.31420898 10.39990234 C189.87930831 12.19050748 192.44001519 13.98724855 195 15.78515625 C198.38599269 18.16166444 201.78221456 20.52232335 205.1875 22.87109375 C206.75001218 23.95571161 208.31251273 25.04034624 209.875 26.125 C210.6081543 26.62620361 211.34130859 27.12740723 212.09667969 27.64379883 C213.808861 28.83738277 215.47290256 30.09954654 217.125 31.375 C217.125 32.035 217.125 32.695 217.125 33.375 C217.785 33.375 218.445 33.375 219.125 33.375 C224.95987784 40.54643852 228.01394716 48.47463151 230.125 57.375 C230.35058594 58.32246094 230.57617188 59.26992187 230.80859375 60.24609375 C240.13433449 108.67563013 220.61119485 169.52984648 200.24023438 212.83837891 C199.08336309 215.36280538 199.08336309 215.36280538 198.24414062 218.02490234 C196.63417824 222.84122239 195.19959722 225.7066018 191.05859375 228.74609375 C190.25437988 229.34437988 189.45016602 229.94266602 188.62158203 230.55908203 C187.79770996 231.15833496 186.97383789 231.75758789 186.125 232.375 C184.61057695 233.5063764 183.09625243 234.63788469 181.58203125 235.76953125 C180.03498409 236.91038798 178.4867799 238.04967717 176.9375 239.1875 C175.70628418 240.09326782 175.70628418 240.09326782 174.45019531 241.01733398 C167.38806124 246.20260078 160.27080403 251.30583192 153.125 256.375 C152.1978418 257.06118408 152.1978418 257.06118408 151.25195312 257.76123047 C146.33550149 261.375 146.33550149 261.375 144.125 261.375 C144.06381255 249.85616314 144.40466989 238.36751749 144.81469727 226.85717773 C144.89662148 224.49245065 144.97311187 222.12752912 145.04418945 219.76245117 C145.14833141 216.30852937 145.26965165 212.85557083 145.39453125 209.40234375 C145.42279495 208.35932602 145.45105865 207.31630829 145.48017883 206.24168396 C145.87840842 196.22449997 148.3433302 187.71568433 152.609375 178.6953125 C173.9134847 132.02393817 186.37064872 80.68716064 183.125 29.375 C151.36439976 37.74399614 117.95503667 66.1810278 99.125 93.375 C98.29215916 95.26702943 98.29215916 95.26702943 98.125 97.375 C98.96829574 99.38910017 98.96829574 99.38910017 100.40625 101.31640625 C100.91486572 102.05890625 101.42348145 102.80140625 101.94750977 103.56640625 C102.50108154 104.34886719 103.05465332 105.13132812 103.625 105.9375 C104.74941741 107.57372455 105.87311942 109.21044095 106.99609375 110.84765625 C107.81376221 112.02739014 107.81376221 112.02739014 108.64794922 113.23095703 C113.67461029 120.52750868 118.23536009 128.14174529 122.875 135.6875 C123.34752197 136.45320312 123.82004395 137.21890625 124.30688477 138.0078125 C129.48976535 146.47692304 129.48976535 146.47692304 131.125 150.375 C130.03114765 153.65655704 129.58365161 154.03696502 126.87109375 155.90625 C125.84858521 156.6192627 125.84858521 156.6192627 124.80541992 157.34667969 C124.06525635 157.85102539 123.32509277 158.35537109 122.5625 158.875 C121.80106689 159.40254883 121.03963379 159.93009766 120.25512695 160.47363281 C117.88321399 162.11450187 115.50425708 163.7448048 113.125 165.375 C111.70257411 166.3585788 110.28067539 167.34292052 108.859375 168.328125 C101.0047461 173.76305926 93.09325419 179.10810471 85.125 184.375 C81.67762479 181.25045591 79.41870567 177.79726356 77.15625 173.78125 C76.79406372 173.15271118 76.43187744 172.52417236 76.05871582 171.87658691 C74.51978602 169.20547172 72.99570785 166.5259724 71.47021484 163.84716797 C70.34983607 161.88471498 69.22198597 159.92669304 68.09375 157.96875 C67.58575867 157.06703064 67.58575867 157.06703064 67.06750488 156.14709473 C65.10369156 152.74107199 63.03957042 150.01663406 60.125 147.375 C58.70565368 149.62334506 57.28921968 151.87343083 55.875 154.125 C55.43406006 154.82568604 54.99312012 155.52637207 54.53881836 156.24829102 C51.92975606 160.41652132 49.38166881 164.61323141 46.89453125 168.85546875 C46.36053711 169.76264648 45.82654297 170.66982422 45.27636719 171.60449219 C44.22656303 173.39374046 43.18409088 175.18731318 42.14941406 176.98535156 C41.4277002 178.2127002 41.4277002 178.2127002 40.69140625 179.46484375 C40.26802979 180.19566162 39.84465332 180.92647949 39.40844727 181.67944336 C38.125 183.375 38.125 183.375 35.125 184.375 C33.4777832 183.56152344 33.4777832 183.56152344 31.67578125 182.234375 C31.00047363 181.74614258 30.32516602 181.25791016 29.62939453 180.75488281 C28.90606934 180.21702148 28.18274414 179.67916016 27.4375 179.125 C25.90048574 178.00938794 24.36270695 176.89482854 22.82421875 175.78125 C21.65125244 174.92660156 21.65125244 174.92660156 20.45458984 174.0546875 C16.9301579 171.51349155 13.34162065 169.06980419 9.75 166.625 C7.20546698 164.87914336 4.66427787 163.12849003 2.125 161.375 C1.54862793 160.97732422 0.97225586 160.57964844 0.37841797 160.16992188 C-1.1915008 159.08060929 -2.7523117 157.97820411 -4.3125 156.875 C-5.17746094 156.2665625 -6.04242188 155.658125 -6.93359375 155.03125 C-8.875 153.375 -8.875 153.375 -9.875 150.375 C-9.16235352 148.59741211 -9.16235352 148.59741211 -8.00390625 146.65234375 C-7.59462891 145.94916016 -7.18535156 145.24597656 -6.76367188 144.52148438 C-6.32603516 143.79251953 -5.88839844 143.06355469 -5.4375 142.3125 C-4.58097412 140.86544216 -3.72793065 139.41631561 -2.87890625 137.96484375 C-2.49549072 137.32409912 -2.1120752 136.68335449 -1.71704102 136.02319336 C-0.723349 134.38663331 -0.723349 134.38663331 -0.875 132.375 C-0.4728125 131.98699219 -0.070625 131.59898437 0.34375 131.19921875 C2.94841091 128.53172611 4.70579488 125.36030309 6.625 122.1875 C9.38412438 117.66755356 12.19146792 113.21890586 15.26171875 108.90234375 C15.77089844 108.18522217 16.28007812 107.46810059 16.8046875 106.72924805 C17.79534577 105.34672156 18.79639358 103.97156994 19.80859375 102.60473633 C22.39647244 99.30428888 22.39647244 99.30428888 22.89013672 95.33740234 C21.68069833 92.23546688 19.34647729 90.09995188 17.0625 87.75 C12.125 82.63062756 12.125 82.63062756 12.125 80.375 C10.64 79.88 10.64 79.88 9.125 79.375 C7.79296875 77.984375 7.79296875 77.984375 6.3125 76.125 C-11.04752205 55.79311614 -35.33024226 37.52191231 -60.875 29.375 C-62.81039873 36.69250357 -63.22528973 43.5088732 -63.1875 51.0625 C-63.18186035 52.25294922 -63.1762207 53.44339844 -63.17041016 54.66992188 C-62.56935976 99.20716139 -46.62932293 143.32325131 -29.9375 184.125 C-29.64302979 184.84631104 -29.34855957 185.56762207 -29.04516602 186.31079102 C-27.85170003 189.58341276 -27.85170003 189.58341276 -25.875 192.375 C-25.69252225 194.20195364 -25.57618245 196.03555271 -25.48608398 197.86938477 C-25.42609726 199.04473282 -25.36611053 200.22008087 -25.30430603 201.43104553 C-25.24384598 202.71321457 -25.18338593 203.99538361 -25.12109375 205.31640625 C-25.05592056 206.62778061 -24.99074738 207.93915497 -24.92359924 209.29026794 C-24.78543176 212.07529607 -24.65041832 214.8604531 -24.51782227 217.64575195 C-24.34866127 221.19762753 -24.17373369 224.7491873 -23.99664211 228.30067539 C-23.82745744 231.70163945 -23.66179713 235.10277071 -23.49609375 238.50390625 C-23.43360947 239.77190567 -23.37112518 241.03990509 -23.30674744 242.34632874 C-23.02113995 248.36362063 -22.80036191 254.35090811 -22.875 260.375 C-27.16016232 260.375 -27.71825865 260.1120509 -30.9296875 257.6640625 C-31.70223877 257.08366211 -32.47479004 256.50326172 -33.27075195 255.90527344 C-34.08890381 255.2765332 -34.90705566 254.64779297 -35.75 254 C-37.46943682 252.7049119 -39.18949314 251.4106459 -40.91015625 250.1171875 C-41.75594238 249.47749023 -42.60172852 248.83779297 -43.47314453 248.17871094 C-46.67464166 245.77449658 -49.92394675 243.44376592 -53.1875 241.125 C-53.74050781 240.72224854 -54.29351562 240.31949707 -54.86328125 239.90454102 C-57.6947543 237.85363397 -60.53968742 235.95909214 -63.56640625 234.20703125 C-73.79087731 228.06399991 -77.15672463 220.97766415 -80.98046875 209.88964844 C-81.83698532 207.4818644 -82.78047857 205.14006501 -83.78125 202.7890625 C-95.60603428 174.95130388 -104.11223744 145.23411451 -108.875 115.375 C-109.04273926 114.4046582 -109.21047852 113.43431641 -109.38330078 112.43457031 C-110.81547848 103.52409564 -111.24750666 94.8190542 -111.24560547 85.81689453 C-111.24998352 83.5086909 -111.28648125 81.2024002 -111.32421875 78.89453125 C-111.45387469 61.52155967 -107.9481991 43.68131908 -95.390625 30.859375 C-90.31705669 26.28814019 -84.53307126 22.57481769 -78.89404297 18.74658203 C-75.81960897 16.65804876 -72.75302119 14.55807747 -69.68579102 12.45898438 C-68.02430113 11.32242333 -66.36203201 10.18700054 -64.69897461 9.05273438 C-60.49528373 6.18320491 -56.3229197 3.28004654 -52.1875 0.3125 C-35.03160633 -11.7746069 -17.99376574 -8.76475401 0 0 Z M60.125 56.375 C58.45758321 58.05472245 56.84580573 59.75378999 55.25 61.5 C54.75967285 62.03625 54.2693457 62.5725 53.76416016 63.125 C44.87414136 72.9769455 37.02387968 83.72613999 29.125 94.375 C30.45559504 97.21635029 31.95802503 99.62315872 33.8828125 102.09765625 C34.42204346 102.79552246 34.96127441 103.49338867 35.5168457 104.21240234 C36.37475708 105.31382568 36.37475708 105.31382568 37.25 106.4375 C38.43455832 107.97191209 39.61815389 109.50706791 40.80078125 111.04296875 C41.37393066 111.78724121 41.94708008 112.53151367 42.53759766 113.29833984 C45.82102065 117.59375602 48.97022807 121.9848858 52.125 126.375 C53.62392229 128.43828336 55.12390985 130.50079328 56.625 132.5625 C57.79166667 134.16666667 58.95833333 135.77083333 60.125 137.375 C63.14073216 134.50670363 65.58896343 131.51400723 68 128.125 C71.30910402 123.48957493 74.69739202 118.92294855 78.125 114.375 C79.6905346 112.29394298 81.2556103 110.21254233 82.8203125 108.13085938 C83.87179255 106.73196821 84.92389306 105.33354324 85.9765625 103.93554688 C86.48445313 103.25943359 86.99234375 102.58332031 87.515625 101.88671875 C87.96969727 101.28303467 88.42376953 100.67935059 88.89160156 100.05737305 C90.0130778 98.52766348 91.07286367 96.9532045 92.125 95.375 C77.73324126 74.96185915 77.73324126 74.96185915 61.125 56.375 C60.795 56.375 60.465 56.375 60.125 56.375 Z " fill="#58AED2" transform="translate(112.875,52.625)"/>
<path d="M0 0 C1.73353282 1.22437422 3.45937862 2.45902197 5.18408203 3.69580078 C8.23218408 5.8702572 11.30568541 8.00799581 14.37670898 10.14990234 C16.94180831 11.94050748 19.50251519 13.73724855 22.0625 15.53515625 C25.44849269 17.91166444 28.84471456 20.27232335 32.25 22.62109375 C33.81251218 23.70571161 35.37501273 24.79034624 36.9375 25.875 C37.6706543 26.37620361 38.40380859 26.87740723 39.15917969 27.39379883 C40.871361 28.58738277 42.53540256 29.84954654 44.1875 31.125 C44.1875 31.785 44.1875 32.445 44.1875 33.125 C44.8475 33.125 45.5075 33.125 46.1875 33.125 C52.02237784 40.29643852 55.07644716 48.22463151 57.1875 57.125 C57.41308594 58.07246094 57.63867188 59.01992187 57.87109375 59.99609375 C67.19683449 108.42563013 47.67369485 169.27984648 27.30273438 212.58837891 C26.14586309 215.11280538 26.14586309 215.11280538 25.30664062 217.77490234 C23.69667824 222.59122239 22.26209722 225.4566018 18.12109375 228.49609375 C17.31687988 229.09437988 16.51266602 229.69266602 15.68408203 230.30908203 C14.86020996 230.90833496 14.03633789 231.50758789 13.1875 232.125 C11.67307695 233.2563764 10.15875243 234.38788469 8.64453125 235.51953125 C7.09748409 236.66038798 5.5492799 237.79967717 4 238.9375 C2.76878418 239.84326782 2.76878418 239.84326782 1.51269531 240.76733398 C-5.54943876 245.95260078 -12.66669597 251.05583192 -19.8125 256.125 C-20.7396582 256.81118408 -20.7396582 256.81118408 -21.68554688 257.51123047 C-26.60199851 261.125 -26.60199851 261.125 -28.8125 261.125 C-28.87368745 249.60616314 -28.53283011 238.11751749 -28.12280273 226.60717773 C-28.04087852 224.24245065 -27.96438813 221.87752912 -27.89331055 219.51245117 C-27.78916859 216.05852937 -27.66784835 212.60557083 -27.54296875 209.15234375 C-27.5005732 207.58781715 -27.5005732 207.58781715 -27.45732117 205.99168396 C-27.05909158 195.97449997 -24.5941698 187.46568433 -20.328125 178.4453125 C0.9759847 131.77393817 13.43314872 80.43716064 10.1875 29.125 C-21.57310024 37.49399614 -54.98246333 65.9310278 -73.8125 93.125 C-74.64534084 95.01702943 -74.64534084 95.01702943 -74.8125 97.125 C-73.96920426 99.13910017 -73.96920426 99.13910017 -72.53125 101.06640625 C-72.02263428 101.80890625 -71.51401855 102.55140625 -70.98999023 103.31640625 C-70.43641846 104.09886719 -69.88284668 104.88132812 -69.3125 105.6875 C-68.18808259 107.32372455 -67.06438058 108.96044095 -65.94140625 110.59765625 C-65.39629395 111.38414551 -64.85118164 112.17063477 -64.28955078 112.98095703 C-57.34765347 123.05760864 -51.16828601 133.67360834 -44.8125 144.125 C-46.1325 144.455 -47.4525 144.785 -48.8125 145.125 C-48.8125 146.445 -48.8125 147.765 -48.8125 149.125 C-49.8025 149.455 -50.7925 149.785 -51.8125 150.125 C-51.8125 148.145 -51.8125 146.165 -51.8125 144.125 C-54.4525 144.455 -57.0925 144.785 -59.8125 145.125 C-60.03679687 144.49078125 -60.26109375 143.8565625 -60.4921875 143.203125 C-61.65035757 140.90483843 -61.65035757 140.90483843 -64.1953125 140.296875 C-65.10023438 140.15765625 -66.00515625 140.0184375 -66.9375 139.875 C-67.84757812 139.72546875 -68.75765625 139.5759375 -69.6953125 139.421875 C-70.74332031 139.27492187 -70.74332031 139.27492187 -71.8125 139.125 C-72.1425 140.115 -72.4725 141.105 -72.8125 142.125 C-74.04226562 142.18107422 -74.04226562 142.18107422 -75.296875 142.23828125 C-76.37453125 142.30402344 -77.4521875 142.36976563 -78.5625 142.4375 C-80.16351563 142.52451172 -80.16351563 142.52451172 -81.796875 142.61328125 C-85.06154834 143.16726079 -86.24602285 144.16524235 -88.8125 146.125 C-95.05113374 146.22209936 -102.96752092 142.89840526 -107.8125 139.125 C-109.33984375 136.3125 -109.33984375 136.3125 -109.8125 133.125 C-108.2578125 130.203125 -108.2578125 130.203125 -105.9375 127.375 C-102.89580241 124.12621001 -102.89580241 124.12621001 -101.8125 120.125 C-100.66616569 118.97651497 -99.5152867 117.83229962 -98.34521484 116.70800781 C-95.29954324 113.56239859 -92.75607934 109.99221402 -90.125 106.5 C-89.54427734 105.736875 -88.96355469 104.97375 -88.36523438 104.1875 C-86.10285796 101.20587096 -83.88939506 98.24034259 -81.8125 95.125 C-95.27554736 74.73752518 -95.27554736 74.73752518 -111.8125 57.125 C-113.1325 57.125 -114.4525 57.125 -115.8125 57.125 C-116.125 54.8125 -116.125 54.8125 -115.8125 52.125 C-113.4375 50.5625 -113.4375 50.5625 -110.8125 49.125 C-110.1455471 47.79180982 -109.47892779 46.45845274 -108.8125 45.125 C-107.50772458 43.63747326 -106.14698058 42.19816725 -104.75 40.796875 C-103.95335937 39.99765625 -103.15671875 39.1984375 -102.3359375 38.375 C-101.50320312 37.55 -100.67046875 36.725 -99.8125 35.875 C-98.97976562 35.03453125 -98.14703125 34.1940625 -97.2890625 33.328125 C-96.49242187 32.5340625 -95.69578125 31.74 -94.875 30.921875 C-94.14410156 30.19323242 -93.41320312 29.46458984 -92.66015625 28.71386719 C-90.8125 27.125 -90.8125 27.125 -88.8125 27.125 C-88.8125 26.465 -88.8125 25.805 -88.8125 25.125 C-85.70060476 22.20347952 -82.20440386 19.7109069 -78.8125 17.125 C-78.26078125 16.69445312 -77.7090625 16.26390625 -77.140625 15.8203125 C-54.77064905 -1.61214624 -26.39701252 -17.94328572 0 0 Z " fill="#2F95C0" transform="translate(285.8125,52.875)"/>
<path d="M0 0 C0.66 0 1.32 0 2 0 C2.29390625 0.93392578 2.29390625 0.93392578 2.59375 1.88671875 C7.07333241 15.73094543 12.42459997 29.28867171 17.9375 42.75 C18.23180908 43.47082764 18.52611816 44.19165527 18.8293457 44.93432617 C20.02292305 48.2077512 20.02292305 48.2077512 22 51 C22.18247775 52.82695364 22.29881755 54.66055271 22.38891602 56.49438477 C22.44890274 57.66973282 22.50888947 58.84508087 22.57069397 60.05604553 C22.63115402 61.33821457 22.69161407 62.62038361 22.75390625 63.94140625 C22.81907944 65.25278061 22.88425262 66.56415497 22.95140076 67.91526794 C23.08956824 70.70029607 23.22458168 73.4854531 23.35717773 76.27075195 C23.52633873 79.82262753 23.70126631 83.3741873 23.87835789 86.92567539 C24.04754256 90.32663945 24.21320287 93.72777071 24.37890625 97.12890625 C24.44139053 98.39690567 24.50387482 99.66490509 24.56825256 100.97132874 C24.85386005 106.98862063 25.07463809 112.97590811 25 119 C20.71483768 119 20.15674135 118.7370509 16.9453125 116.2890625 C15.7864856 115.41846191 15.7864856 115.41846191 14.60424805 114.53027344 C13.78609619 113.9015332 12.96794434 113.27279297 12.125 112.625 C10.40556318 111.3299119 8.68550686 110.0356459 6.96484375 108.7421875 C5.69616455 107.7826416 5.69616455 107.7826416 4.40185547 106.80371094 C1.20035834 104.39949658 -2.04894675 102.06876592 -5.3125 99.75 C-5.86550781 99.34724854 -6.41851562 98.94449707 -6.98828125 98.52954102 C-9.8197543 96.47863397 -12.66468742 94.58409214 -15.69140625 92.83203125 C-25.91587731 86.68899991 -29.28172463 79.60266415 -33.10546875 68.51464844 C-33.96198532 66.1068644 -34.90547857 63.76506501 -35.90625 61.4140625 C-40.28986756 51.08811078 -43.91638456 40.53919531 -47.375 29.875 C-47.70078033 28.8774469 -47.70078033 28.8774469 -48.03314209 27.85974121 C-50.48606154 20.31936284 -52.70566474 12.83728046 -54 5 C-52.68 5.33 -51.36 5.66 -50 6 C-50 5.34 -50 4.68 -50 4 C-49.01 4 -48.02 4 -47 4 C-46.67 4.99 -46.34 5.98 -46 7 C-43.14921909 7.76716851 -43.14921909 7.76716851 -40 8 C-37.37896673 6.22144171 -36.27799804 3.85091869 -35 1 C-32.625 1.25 -32.625 1.25 -30 2 C-29.5359375 2.9590625 -29.5359375 2.9590625 -29.0625 3.9375 C-28.12438351 6.27607447 -28.12438351 6.27607447 -25.3125 7.25 C-21.97680564 8.1334155 -21.97680564 8.1334155 -18.375 8 C-15.13036778 8 -13.67688486 8.28679369 -11 10 C-11 9.01 -11 8.02 -11 7 C-11.66 7 -12.32 7 -13 7 C-13 5.68 -13 4.36 -13 3 C-11.9790625 3.309375 -11.9790625 3.309375 -10.9375 3.625 C-7.16732665 4.10629873 -4.54410261 3.29496057 -1 2 C-0.67 1.34 -0.34 0.68 0 0 Z " fill="#3296C2" transform="translate(65,194)"/>
<path d="M0 0 C0 0.66 0 1.32 0 2 C-0.66 2 -1.32 2 -2 2 C-2 2.99 -2 3.98 -2 5 C-3.6396875 5.556875 -3.6396875 5.556875 -5.3125 6.125 C-8.54588489 7.4798799 -8.98576455 7.97658038 -10.9375 11.1875 C-11.4634375 12.5796875 -11.4634375 12.5796875 -12 14 C-9.69 14.66 -7.38 15.32 -5 16 C-5.99 15.505 -5.99 15.505 -7 15 C-7 13.68 -7 12.36 -7 11 C-6.34 11 -5.68 11 -5 11 C-5 10.34 -5 9.68 -5 9 C-4.01 9 -3.02 9 -2 9 C-1.67 8.01 -1.34 7.02 -1 6 C0.8125 5.1875 0.8125 5.1875 3 5 C5.25 5.9375 5.25 5.9375 7 7 C6.35554055 12.61279222 5.02996612 17.79211911 3.375 23.1875 C2.97740479 24.49364258 2.97740479 24.49364258 2.57177734 25.82617188 C-1.99349676 40.63735852 -7.27389123 55.1478915 -13.16796875 69.48046875 C-14.28557911 72.19936356 -15.31904923 74.90157756 -16.30078125 77.67578125 C-16.67589844 78.71089844 -17.05101562 79.74601562 -17.4375 80.8125 C-17.72496094 81.66457031 -18.01242187 82.51664062 -18.30859375 83.39453125 C-21.02593759 87.58037038 -24.99528324 90.09902896 -29 93 C-30.51467596 94.13103777 -32.02900414 95.26254147 -33.54296875 96.39453125 C-35.09001591 97.53538798 -36.6382201 98.67467717 -38.1875 99.8125 C-39.00831055 100.41634521 -39.82912109 101.02019043 -40.67480469 101.64233398 C-47.73693876 106.82760078 -54.85419597 111.93083192 -62 117 C-62.61810547 117.45745605 -63.23621094 117.91491211 -63.87304688 118.38623047 C-68.78949851 122 -68.78949851 122 -71 122 C-71.06118745 110.48116314 -70.72033011 98.99251749 -70.31030273 87.48217773 C-70.22837852 85.11745065 -70.15188813 82.75252912 -70.08081055 80.38745117 C-69.97666859 76.93352937 -69.85534835 73.48057083 -69.73046875 70.02734375 C-69.70220505 68.98432602 -69.67394135 67.94130829 -69.64482117 66.86668396 C-69.24729075 56.86708716 -66.8023894 48.35032801 -62.5234375 39.3515625 C-59.41890885 32.52159946 -56.75712249 25.49857463 -53.99951172 18.52294922 C-52.34403556 14.34422654 -50.67186698 10.17218645 -49 6 C-47.68 6.33 -46.36 6.66 -45 7 C-44.67 6.01 -44.34 5.02 -44 4 C-42.35 3.67 -40.7 3.34 -39 3 C-38.731875 3.61875 -38.46375 4.2375 -38.1875 4.875 C-37.04443152 7.2995233 -37.04443152 7.2995233 -34 9 C-31.39479268 9.3844162 -31.39479268 9.3844162 -28.5625 9.5 C-24.8383721 9.70267363 -22.23652668 10.1024619 -19 12 C-19 11.01 -19 10.02 -19 9 C-19.66 9 -20.32 9 -21 9 C-21 7.68 -21 6.36 -21 5 C-18.07120629 5.62759865 -15.63904371 6.58622659 -13 8 C-12.67 6.35 -12.34 4.7 -12 3 C-10.56445975 2.49440092 -9.1264798 1.9957251 -7.6875 1.5 C-6.88699219 1.2215625 -6.08648437 0.943125 -5.26171875 0.65625 C-3 0 -3 0 0 0 Z " fill="#5BB1D3" transform="translate(328,192)"/>
<path d="M0 0 C3.26954202 0.56371414 4.82575883 1.49962266 7 4 C7.99 3.67 8.98 3.34 10 3 C10.17917969 3.59167969 10.35835938 4.18335938 10.54296875 4.79296875 C12.70092116 8.06171704 15.78525943 8.97087084 19.3125 10.3125 C19.97701172 10.58900391 20.64152344 10.86550781 21.32617188 11.15039062 C25.23660268 12.6859406 27.99398302 13.48127768 32 12 C32.66 11.34 33.32 10.68 34 10 C37.11663497 9.61533818 40.21156449 9.49291013 43.34765625 9.34375 C44.22292969 9.2303125 45.09820312 9.116875 46 9 C46.33 8.34 46.66 7.68 47 7 C55 6.69230769 55 6.69230769 58 9 C58.495 10.98 58.495 10.98 59 13 C61.64 12.34 64.28 11.68 67 11 C68 14 68 14 68 17 C68.66 17 69.32 17 70 17 C70 15.68 70 14.36 70 13 C71.32 13 72.64 13 74 13 C75.8125 15.3125 75.8125 15.3125 77 18 C75.90614765 21.28155704 75.45865161 21.66196502 72.74609375 23.53125 C71.72358521 24.2442627 71.72358521 24.2442627 70.68041992 24.97167969 C69.94025635 25.47602539 69.20009277 25.98037109 68.4375 26.5 C67.67606689 27.02754883 66.91463379 27.55509766 66.13012695 28.09863281 C63.75821399 29.73950187 61.37925708 31.3698048 59 33 C57.57757411 33.9835788 56.15567539 34.96792052 54.734375 35.953125 C46.8797461 41.38805926 38.96825419 46.73310471 31 52 C27.55262479 48.87545591 25.29370567 45.42226356 23.03125 41.40625 C22.66906372 40.77771118 22.30687744 40.14917236 21.93371582 39.50158691 C20.39478602 36.83047172 18.87070785 34.1509724 17.34521484 31.47216797 C16.22483607 29.50971498 15.09698597 27.55169304 13.96875 25.59375 C13.63008911 24.99260376 13.29142822 24.39145752 12.94250488 23.77209473 C10.97869156 20.36607199 8.91457042 17.64163406 6 15 C4.58065368 17.24834506 3.16421968 19.49843083 1.75 21.75 C1.30906006 22.45068604 0.86812012 23.15137207 0.41381836 23.87329102 C-2.19524394 28.04152132 -4.74333119 32.23823141 -7.23046875 36.48046875 C-7.76446289 37.38764648 -8.29845703 38.29482422 -8.84863281 39.22949219 C-9.89843697 41.01874046 -10.94090912 42.81231318 -11.97558594 44.61035156 C-12.45672852 45.42858398 -12.93787109 46.24681641 -13.43359375 47.08984375 C-13.85697021 47.82066162 -14.28034668 48.55147949 -14.71655273 49.30444336 C-16 51 -16 51 -19 52 C-20.6472168 51.18652344 -20.6472168 51.18652344 -22.44921875 49.859375 C-23.12452637 49.37114258 -23.79983398 48.88291016 -24.49560547 48.37988281 C-25.21893066 47.84202148 -25.94225586 47.30416016 -26.6875 46.75 C-28.22451426 45.63438794 -29.76229305 44.51982854 -31.30078125 43.40625 C-32.08275879 42.83648437 -32.86473633 42.26671875 -33.67041016 41.6796875 C-37.1948421 39.13849155 -40.78337935 36.69480419 -44.375 34.25 C-46.91953302 32.50414336 -49.46072213 30.75349003 -52 29 C-52.57637207 28.60232422 -53.15274414 28.20464844 -53.74658203 27.79492188 C-55.3165008 26.70560929 -56.8773117 25.60320411 -58.4375 24.5 C-59.73494141 23.58734375 -59.73494141 23.58734375 -61.05859375 22.65625 C-63 21 -63 21 -64 18 C-62.9375 15.375 -62.9375 15.375 -61 13 C-57.8125 12.1875 -57.8125 12.1875 -55 12 C-54.67 12.99 -54.34 13.98 -54 15 C-53.01 15 -52.02 15 -51 15 C-50.67 13.68 -50.34 12.36 -50 11 C-42.08 11 -34.16 11 -26 11 C-25.505 11.99 -25.505 11.99 -25 13 C-22.47266765 13.65555119 -22.47266765 13.65555119 -20 14 C-19.67 13.34 -19.34 12.68 -19 12 C-10.42857143 12.85714286 -10.42857143 12.85714286 -7 15 C-6.67 14.01 -6.34 13.02 -6 12 C-5.34 12 -4.68 12 -4 12 C-4 11.01 -4 10.02 -4 9 C-2.35 8.34 -0.7 7.68 1 7 C1.15149298 3.37114676 1.15149298 3.37114676 0 0 Z " fill="#5AB0D3" transform="translate(167,185)"/>
<path d="M0 0 C7.92 0 15.84 0 24 0 C24.495 0.99 24.495 0.99 25 2 C27.52733235 2.65555119 27.52733235 2.65555119 30 3 C30.33 2.34 30.66 1.68 31 1 C39.57142857 1.85714286 39.57142857 1.85714286 43 4 C43.33 3.01 43.66 2.02 44 1 C48.95 1.99 48.95 1.99 54 3 C54.33 2.34 54.66 1.68 55 1 C54.48204663 6.00735429 52.92960792 9.27496497 50.2890625 13.53515625 C49.9202597 14.13629745 49.55145691 14.73743866 49.17147827 15.35679626 C47.99833679 17.26444046 46.8120387 19.16347935 45.625 21.0625 C44.83504037 22.3412431 44.04596913 23.62053546 43.2578125 24.90039062 C41.80575819 27.25620436 40.34772132 29.60786913 38.88525391 31.95727539 C37.68864155 33.88856 36.53403602 35.84702836 35.43896484 37.83764648 C34 40 34 40 31 41 C29.3527832 40.18652344 29.3527832 40.18652344 27.55078125 38.859375 C26.87547363 38.37114258 26.20016602 37.88291016 25.50439453 37.37988281 C24.78106934 36.84202148 24.05774414 36.30416016 23.3125 35.75 C21.77548574 34.63438794 20.23770695 33.51982854 18.69921875 32.40625 C17.91724121 31.83648437 17.13526367 31.26671875 16.32958984 30.6796875 C12.8051579 28.13849155 9.21662065 25.69480419 5.625 23.25 C3.08046698 21.50414336 0.53927787 19.75349003 -2 18 C-2.57637207 17.60232422 -3.15274414 17.20464844 -3.74658203 16.79492188 C-5.3165008 15.70560929 -6.8773117 14.60320411 -8.4375 13.5 C-9.30246094 12.8915625 -10.16742188 12.283125 -11.05859375 11.65625 C-13 10 -13 10 -14 7 C-12.9375 4.375 -12.9375 4.375 -11 2 C-7.8125 1.1875 -7.8125 1.1875 -5 1 C-4.67 1.99 -4.34 2.98 -4 4 C-3.01 4 -2.02 4 -1 4 C-0.67 2.68 -0.34 1.36 0 0 Z " fill="#3297C2" transform="translate(117,196)"/>
<path d="M0 0 C3.26954202 0.56371414 4.82575883 1.49962266 7 4 C7.99 3.67 8.98 3.34 10 3 C10.165 3.598125 10.33 4.19625 10.5 4.8125 C12.81276204 8.18527798 16.19891337 8.8331548 20 10 C20.33 12.64 20.66 15.28 21 18 C17.32430561 18.58304118 13.72637784 19.05408386 10 19 C7.6875 17.125 7.6875 17.125 6 15 C3.06314844 14.24662241 3.06314844 14.24662241 0 14 C-1.66804677 13.67364302 -3.33524314 13.34274406 -5 13 C-4.8125 11.125 -4.8125 11.125 -4 9 C-1.4375 7.75 -1.4375 7.75 1 7 C1.15149298 3.37114676 1.15149298 3.37114676 0 0 Z " fill="#3398C4" transform="translate(167,185)"/>
<path d="M0 0 C0.88945312 0.0515625 1.77890625 0.103125 2.6953125 0.15625 C3.61570313 0.22070312 4.53609375 0.28515625 5.484375 0.3515625 C6.42023438 0.40828125 7.35609375 0.465 8.3203125 0.5234375 C10.62580948 0.66459038 12.93016428 0.815966 15.234375 0.9765625 C14.904375 2.6265625 14.574375 4.2765625 14.234375 5.9765625 C13.42613281 5.96496094 12.61789063 5.95335937 11.78515625 5.94140625 C10.18220703 5.92787109 10.18220703 5.92787109 8.546875 5.9140625 C7.49113281 5.90246094 6.43539062 5.89085937 5.34765625 5.87890625 C2.29217542 5.88890643 2.29217542 5.88890643 -0.421875 6.5078125 C-3.6801492 7.15946734 -6.52159641 6.54903813 -9.765625 5.9765625 C-9.515625 4.1015625 -9.515625 4.1015625 -8.765625 1.9765625 C-5.74768225 0.01936512 -3.54465528 -0.22722149 0 0 Z " fill="#3297C1" transform="translate(210.765625,197.0234375)"/>
<path d="M0 0 C0.99 0.33 1.98 0.66 3 1 C3.33 2.98 3.66 4.96 4 7 C0.37 7.33 -3.26 7.66 -7 8 C-7 4 -7 4 -5 2 C-2.375 1.875 -2.375 1.875 0 2 C0 1.34 0 0.68 0 0 Z " fill="#399BC4" transform="translate(184,196)"/>
<path d="M0 0 C2.92879371 0.62759865 5.36095629 1.58622659 8 3 C7.01 3 6.02 3 5 3 C5 3.66 5 4.32 5 5 C3.35 5 1.7 5 0 5 C-0.33 6.32 -0.66 7.64 -1 9 C-1.99 9 -2.98 9 -4 9 C-4.33 7.68 -4.66 6.36 -5 5 C-3.68 4.67 -2.36 4.34 -1 4 C-0.67 2.68 -0.34 1.36 0 0 Z " fill="#5CB0D3" transform="translate(179,193)"/>
<path d="M0 0 C0.598125 0.20625 1.19625 0.4125 1.8125 0.625 C2.1425 2.605 2.4725 4.585 2.8125 6.625 C-0.1575 6.295 -3.1275 5.965 -6.1875 5.625 C-5.19901979 1.67107916 -4.54281955 -0.77876907 0 0 Z " fill="#4AA5CC" transform="translate(168.1875,192.375)"/>
<path d="M0 0 C0.33 0.66 0.66 1.32 1 2 C1.99 2.66 2.98 3.32 4 4 C3.01 4 2.02 4 1 4 C0.67 4.99 0.34 5.98 0 7 C-0.99 7 -1.98 7 -3 7 C-3.33 5.35 -3.66 3.7 -4 2 C-6.64 2 -9.28 2 -12 2 C-12 1.67 -12 1.34 -12 1 C-10.56274129 0.83126522 -9.12518162 0.66509263 -7.6875 0.5 C-6.88699219 0.4071875 -6.08648437 0.314375 -5.26171875 0.21875 C-3 0 -3 0 0 0 Z " fill="#3D9DC7" transform="translate(141,196)"/>
<path d="M0 0 C-0.33 1.32 -0.66 2.64 -1 4 C-6.625 5.125 -6.625 5.125 -10 4 C-9.67 3.01 -9.34 2.02 -9 1 C-5.846632 0.29925156 -3.27275026 0 0 0 Z " fill="#56ADD0" transform="translate(304,195)"/>
<path d="M0 0 C3.3 0 6.6 0 10 0 C10.33 1.65 10.66 3.3 11 5 C7.7 4.34 4.4 3.68 1 3 C0.67 2.01 0.34 1.02 0 0 Z " fill="#3398C2" transform="translate(188,204)"/>
<path d="M0 0 C-0.33 0.99 -0.66 1.98 -1 3 C-4.37817425 3.84454356 -6.67465243 4.10844919 -10 3 C-9.67 2.01 -9.34 1.02 -9 0 C-5.62182575 -0.84454356 -3.32534757 -1.10844919 0 0 Z " fill="#3698C4" transform="translate(49,196)"/>
<path d="M0 0 C0.598125 0.185625 1.19625 0.37125 1.8125 0.5625 C4.16408762 1.22093687 4.16408762 1.22093687 7 0 C7.33 1.32 7.66 2.64 8 4 C7.01 4.33 6.02 4.66 5 5 C5.66 5.33 6.32 5.66 7 6 C7 6.66 7 7.32 7 8 C3.17360931 6.54861043 1.84332652 4.59448672 0 1 C0 0.67 0 0.34 0 0 Z " fill="#55AED1" transform="translate(170,188)"/>
<path d="M0 0 C-0.66 0 -1.32 0 -2 0 C-2 1.32 -2 2.64 -2 4 C-1.01 4.33 -0.02 4.66 1 5 C-2.76624671 6.25541557 -4.37188934 5.37061958 -8 4 C-5.97675095 -0.48005146 -4.79569304 -1.43870791 0 0 Z " fill="#3B9DC5" transform="translate(323,203)"/>
<path d="M0 0 C0.99 0 1.98 0 3 0 C2.67 1.32 2.34 2.64 2 4 C1.34 4 0.68 4 0 4 C0 4.66 0 5.32 0 6 C-0.66 6 -1.32 6 -2 6 C-2 6.99 -2 7.98 -2 9 C-2.99 8.67 -3.98 8.34 -5 8 C-4.24266726 6.6589523 -3.46867264 5.32730219 -2.6875 4 C-2.25824219 3.2575 -1.82898437 2.515 -1.38671875 1.75 C-0.70029297 0.88375 -0.70029297 0.88375 0 0 Z " fill="#53ACD2" transform="translate(65,198)"/>
<path d="M0 0 C0.99 0 1.98 0 3 0 C5.1875 3 5.1875 3 7 6 C3.7 5.34 0.4 4.68 -3 4 C-2.01 2.68 -1.02 1.36 0 0 Z " fill="#54ABD0" transform="translate(31,203)"/>
<path d="M0 0 C0.99 0.33 1.98 0.66 3 1 C3.6875 3.0625 3.6875 3.0625 4 5 C2.02 5 0.04 5 -2 5 C-2.33 4.01 -2.66 3.02 -3 2 C-2.01 1.34 -1.02 0.68 0 0 Z " fill="#56ADD0" transform="translate(307,186)"/>
<path d="M0 0 C0.99 0.33 1.98 0.66 3 1 C3.33 1.99 3.66 2.98 4 4 C3 5 3 5 0.4375 5.0625 C-0.7690625 5.0315625 -0.7690625 5.0315625 -2 5 C-2.33 4.01 -2.66 3.02 -3 2 C-2.01 1.34 -1.02 0.68 0 0 Z " fill="#3598C4" transform="translate(52,186)"/>
<path d="M0 0 C1.65 0.33 3.3 0.66 5 1 C3 4 3 4 -0.125 4.6875 C-1.07375 4.790625 -2.0225 4.89375 -3 5 C-2.67 4.01 -2.34 3.02 -2 2 C-1.34 2 -0.68 2 0 2 C0 1.34 0 0.68 0 0 Z " fill="#3699C4" transform="translate(40,187)"/>
<path d="M0 0 C1.65 0.33 3.3 0.66 5 1 C3 4 3 4 -0.125 4.6875 C-1.07375 4.790625 -2.0225 4.89375 -3 5 C-2.67 4.01 -2.34 3.02 -2 2 C-1.34 2 -0.68 2 0 2 C0 1.34 0 0.68 0 0 Z " fill="#56AED1" transform="translate(295,187)"/>
<path d="M0 0 C5.75 0.875 5.75 0.875 8 2 C8 2.66 8 3.32 8 4 C5.36 3.67 2.72 3.34 0 3 C0 2.01 0 1.02 0 0 Z " fill="#53AACF" transform="translate(148,200)"/>
<path d="M0 0 C0.99 0 1.98 0 3 0 C5.1875 3 5.1875 3 7 6 C4.61435923 5.42415568 2.33317216 4.77772405 0 4 C0 2.68 0 1.36 0 0 Z " fill="#3398C2" transform="translate(286,203)"/>
<path d="M0 0 C2.31 0.66 4.62 1.32 7 2 C7 2.66 7 3.32 7 4 C1.25 4.125 1.25 4.125 -1 3 C-0.67 2.01 -0.34 1.02 0 0 Z " fill="#3598C3" transform="translate(145,192)"/>
<path d="M0 0 C2.475 0.495 2.475 0.495 5 1 C5.33 1.99 5.66 2.98 6 4 C3.03 3.505 3.03 3.505 0 3 C0 2.01 0 1.02 0 0 Z " fill="#3699C4" transform="translate(155,190)"/>
<path d="M0 0 C1.65 0.33 3.3 0.66 5 1 C5.33 1.99 5.66 2.98 6 4 C3.03 3.505 3.03 3.505 0 3 C0 2.01 0 1.02 0 0 Z " fill="#56AED1" transform="translate(192,190)"/>
<path d="M0 0 C0.66 0.66 1.32 1.32 2 2 C-4.4 5.07692308 -4.4 5.07692308 -7.4375 4.6875 C-7.953125 4.460625 -8.46875 4.23375 -9 4 C-6.01353231 2.00902154 -3.40312738 1.05875074 0 0 Z " fill="#1889B5" transform="translate(286,82)"/>
</svg>
